<?xml version="1.0" encoding="UTF-8" standalone="no"?>
<!DOCTYPE svg PUBLIC "-//W3C//DTD SVG 1.1//EN" "http://www.w3.org/Graphics/SVG/1.1/DTD/svg11.dtd">
<svg version="1.1" xmlns="http://www.w3.org/2000/svg" xmlns:xlink="http://www.w3.org/1999/xlink" preserveAspectRatio="xMidYMid meet" viewBox="213.03409435262535 13.489055724025263 201.54098360655752 157.73831775700944" width="197.54" height="153.74"><defs><path d="M403.79 152.65C408.09 152.65 411.58 156.14 411.58 160.44C411.58 162 411.58 158.88 411.58 160.44C411.58 164.74 408.09 168.23 403.79 168.23C365.84 168.23 259.77 168.23 221.82 168.23C217.52 168.23 214.03 164.74 214.03 160.44C214.03 158.88 214.03 162 214.03 160.44C214.03 156.14 217.52 152.65 221.82 152.65C259.77 152.65 365.84 152.65 403.79 152.65Z" id="b14FsQYyz"></path><path d="M225.51 14.49L273.05 14.49L273.05 141.54L225.51 141.54L225.51 14.49Z" id="b5TNoX4fM"></path><path d="M289.03 53.83L336.58 53.83L336.58 141.54L289.03 141.54L289.03 53.83Z" id="a4M53s4iLX"></path><path d="M350.18 97.69L397.72 97.69L397.72 141.54L350.18 141.54L350.18 97.69Z" id="h1I3gZxQ4k"></path></defs><g><g><use xlink:href="#b14FsQYyz" opacity="1" fill="#f5f5f5" fill-opacity="1"></use></g><g><use xlink:href="#b5TNoX4fM" opacity="1" fill="#f5f5f5" fill-opacity="1"></use></g><g><use xlink:href="#a4M53s4iLX" opacity="1" fill="#f5f5f5" fill-opacity="1"></use></g><g><use xlink:href="#h1I3gZxQ4k" opacity="1" fill="#f5f5f5" fill-opacity="1"></use></g></g></svg>