<?xml version="1.0" encoding="UTF-8" standalone="no"?>
<!DOCTYPE svg PUBLIC "-//W3C//DTD SVG 1.1//EN" "http://www.w3.org/Graphics/SVG/1.1/DTD/svg11.dtd">
<svg version="1.1" xmlns="http://www.w3.org/2000/svg" xmlns:xlink="http://www.w3.org/1999/xlink" preserveAspectRatio="xMidYMid meet" viewBox="152.59635455492747 61.72512243260721 369.9574468085106 358.1448427725128" width="365.96" height="354.14"><defs><path d="M519.55 239.8C519.55 337.53 437.56 416.87 336.58 416.87C235.59 416.87 153.6 337.53 153.6 239.8C153.6 142.07 235.59 62.73 336.58 62.73C437.56 62.73 519.55 142.07 519.55 239.8Z" id="a1rocPCgPR"></path><path d="M393.11 158.43C393.11 188.68 367.78 213.24 336.58 213.24C305.37 213.24 280.04 188.68 280.04 158.43C280.04 128.19 305.37 103.63 336.58 103.63C367.78 103.63 393.11 128.19 393.11 158.43Z" id="aKC21ustC"></path><path d="M431.82 325.29C430.81 257.1 399.06 223.11 336.58 223.31C274.09 223.51 242.34 257.5 241.33 325.29L431.82 325.29Z" id="a2c2KEYEM"></path></defs><g><g><use xlink:href="#a1rocPCgPR" opacity="1" fill="#206a5d" fill-opacity="1"></use></g><g><use xlink:href="#aKC21ustC" opacity="1" fill="#ffffff" fill-opacity="1"></use></g><g><use xlink:href="#a2c2KEYEM" opacity="1" fill="#ffffff" fill-opacity="1"></use></g></g></svg>