<?xml version="1.0" encoding="UTF-8" standalone="no"?>
<!DOCTYPE svg PUBLIC "-//W3C//DTD SVG 1.1//EN" "http://www.w3.org/Graphics/SVG/1.1/DTD/svg11.dtd">
<svg version="1.1" xmlns="http://www.w3.org/2000/svg" xmlns:xlink="http://www.w3.org/1999/xlink" preserveAspectRatio="xMidYMid meet" viewBox="287.5924556765217 266.9689397494613 129.20050919330464 127.3721521081822" width="125.2" height="123.37"><defs><path d="M413.79 329.66C413.79 363.7 385.74 391.34 351.19 391.34C316.64 391.34 288.59 363.7 288.59 329.66C288.59 295.61 316.64 267.97 351.19 267.97C385.74 267.97 413.79 295.61 413.79 329.66Z" id="a7nvAgWbeR"></path><path d="M343.53 299.1C348.81 297.78 354.52 298.66 357.7 299.98C360.89 301.29 362.21 305.03 361.99 308.99C361.77 312.94 358.92 315.14 354.52 319.16C350.12 323.19 347.05 323.71 342.87 329.04C340.09 332.6 339.14 338 340.01 345.25L355.84 345.25C355.99 339.68 357.01 335.73 358.92 333.38C361.77 329.87 371.66 324.59 375.84 319.16C380.01 313.74 382.43 300.2 376.73 293.82C371.03 287.45 366.47 285.27 354.99 283.24C347.33 281.89 336.43 284.9 322.3 292.27L328.64 305.54C335.05 302.12 340.01 299.98 343.53 299.1Z" id="cJmB4KN8r"></path><path d="M358.92 366.84C358.92 372.63 354.06 377.34 348.08 377.34C342.09 377.34 337.23 372.63 337.23 366.84C337.23 361.04 342.09 356.34 348.08 356.34C354.06 356.34 358.92 361.04 358.92 366.84Z" id="b2uExZUFly"></path></defs><g><g><use xlink:href="#a7nvAgWbeR" opacity="1" fill="#ffffff" fill-opacity="1"></use></g><g><use xlink:href="#cJmB4KN8r" opacity="1" fill="#8ab914" fill-opacity="1"></use></g><g><use xlink:href="#b2uExZUFly" opacity="1" fill="#8ab914" fill-opacity="1"></use></g></g></svg>