<?xml version="1.0" encoding="UTF-8" standalone="no"?>
<!DOCTYPE svg PUBLIC "-//W3C//DTD SVG 1.1//EN" "http://www.w3.org/Graphics/SVG/1.1/DTD/svg11.dtd">
<svg version="1.1" xmlns="http://www.w3.org/2000/svg" xmlns:xlink="http://www.w3.org/1999/xlink" preserveAspectRatio="xMidYMid meet" viewBox="126.19740571074215 270.5403683208899 371.2897196261687 197.9988759292021" width="367.29" height="194"><defs><path d="M354.58 271.54C360.1 271.54 364.58 276.02 364.58 281.54C364.58 290.29 364.58 306.54 364.58 315.29C364.58 320.81 360.1 325.29 354.58 325.29C314.9 325.29 205.85 325.29 166.17 325.29C160.65 325.29 156.17 320.81 156.17 315.29C156.17 306.54 156.17 290.29 156.17 281.54C156.17 276.02 160.65 271.54 166.17 271.54C205.85 271.54 314.9 271.54 354.58 271.54Z" id="adZ9Ux0UV"></path><path d="M364.58 301.44L156.17 301.44L156.17 400.79L127.2 400.79L127.2 424.81L164.25 424.81C163.91 418.83 165.08 413.17 167.75 407.84C171.75 399.84 176.75 393.84 184.75 387.01C192.75 380.18 217.75 367.34 241.75 381.84C257.75 391.51 266.32 405.83 267.46 424.81L320.9 424.81C321.46 411.16 325.11 400.67 331.83 393.34C338.55 386.01 349.47 380.45 364.58 376.68L364.58 301.44Z" id="bi6whSr1i"></path><path d="M256.52 426.28C256.52 447.95 238.6 465.54 216.52 465.54C194.45 465.54 176.52 447.95 176.52 426.28C176.52 404.6 194.45 387.01 216.52 387.01C238.6 387.01 256.52 404.6 256.52 426.28Z" id="aQqwT16DJ"></path><path d="M411.83 426.28C411.83 447.95 393.91 465.54 371.83 465.54C349.75 465.54 331.83 447.95 331.83 426.28C331.83 404.6 349.75 387.01 371.83 387.01C393.91 387.01 411.83 404.6 411.83 426.28Z" id="gcz7A5ZFu"></path><path d="M404.2 387.01C414.2 393.03 420.39 404.91 422.77 422.66L494.49 422.66L494.49 336.99L474.2 323.57L474.2 363.49L398.2 363.49L398.2 295.84L376.73 295.84L376.73 376.68C385.04 377.55 394.2 381 404.2 387.01Z" id="bOh5yJBe3"></path><path d="M396.7 313.99L428.51 313.99L474.7 342.49L474.7 323.57L428.51 295.84L396.7 295.84L396.7 313.99Z" id="aKZEIuvMQ"></path></defs><g><g><use xlink:href="#adZ9Ux0UV" opacity="1" fill="#000000" fill-opacity="1"></use></g><g><use xlink:href="#bi6whSr1i" opacity="1" fill="#000000" fill-opacity="1"></use></g><g><use xlink:href="#aQqwT16DJ" opacity="1" fill="#000000" fill-opacity="1"></use></g><g><use xlink:href="#gcz7A5ZFu" opacity="1" fill="#000000" fill-opacity="1"></use></g><g><use xlink:href="#bOh5yJBe3" opacity="1" fill="#000000" fill-opacity="1"></use></g><g><use xlink:href="#aKZEIuvMQ" opacity="1" fill="#000000" fill-opacity="1"></use></g></g></svg>